<svg xmlns="http://www.w3.org/2000/svg" xmlns:xlink="http://www.w3.org/1999/xlink" width="461pt" height="116pt" viewBox="0 0 461.14 116"><g id="graph0" class="graph" transform="scale(1 1) rotate(0) translate(4 112)"><title>G</title><polygon fill="#fff" stroke="none" points="-4 4 -4 -112 457.14 -112 457.14 4 -4 4"/><g id="node1" class="node"><title>:core:datastore</title><ellipse cx="258.69" cy="-90" fill="none" stroke="#000" rx="65.17" ry="18"/><text x="258.69" y="-84.95" font-family="Times,serif" font-size="14" text-anchor="middle">:core:datastore</text></g><g id="node2" class="node"><title>:core:datastore-proto</title><ellipse cx="87.69" cy="-18" fill="none" stroke="#000" rx="87.69" ry="18"/><text x="87.69" y="-12.95" font-family="Times,serif" font-size="14" text-anchor="middle">:core:datastore-proto</text></g><g id="edge1" class="edge"><title>:core:datastore-&gt;:core:datastore-proto</title><path fill="none" stroke="red" stroke-width="2" d="M223.26,-74.5C198.13,-64.21 164.08,-50.27 136.4,-38.94"/><polygon fill="red" stroke="red" stroke-width="2" points="139.13 -36.28 128.55 -35.73 136.48 -42.75 139.13 -36.28"/></g><g id="node3" class="node"><title>:core:common</title><ellipse cx="258.69" cy="-18" fill="none" stroke="#000" rx="65.17" ry="18"/><text x="258.69" y="-12.95" font-family="Times,serif" font-size="14" text-anchor="middle">:core:common</text></g><g id="edge2" class="edge"><title>:core:datastore-&gt;:core:common</title><path fill="none" stroke="#000" d="M258.69,-71.7C258.69,-64.41 258.69,-55.73 258.69,-47.54"/><polygon fill="#000" stroke="#000" points="262.19 -47.62 258.69 -37.62 255.19 -47.62 262.19 -47.62"/></g><g id="node4" class="node"><title>:core:model</title><ellipse cx="397.69" cy="-18" fill="none" stroke="#000" rx="55.45" ry="18"/><text x="397.69" y="-12.95" font-family="Times,serif" font-size="14" text-anchor="middle">:core:model</text></g><g id="edge3" class="edge"><title>:core:datastore-&gt;:core:model</title><path fill="none" stroke="#000" d="M289.19,-73.64C309.61,-63.35 336.68,-49.73 358.66,-38.65"/><polygon fill="#000" stroke="#000" points="359.97 -41.91 367.33 -34.29 356.83 -35.66 359.97 -41.91"/></g></g></svg>